<svg xmlns="http://www.w3.org/2000/svg" viewBox="0 0 128 128" role="img" aria-labelledby="title">
  <title id="title">1ONE CLI</title>
  <defs>
    <linearGradient id="surface" x1="12" y1="8" x2="116" y2="120" gradientUnits="userSpaceOnUse">
      <stop stop-color="#2D73FF"/>
      <stop offset="1" stop-color="#6A46E8"/>
    </linearGradient>
    <filter id="shadow" x="-20%" y="-20%" width="140%" height="140%">
      <feDropShadow dx="0" dy="5" stdDeviation="5" flood-color="#172554" flood-opacity=".28"/>
    </filter>
  </defs>
  <rect x="10" y="10" width="108" height="108" rx="30" fill="url(#surface)" filter="url(#shadow)"/>
  <path d="M38 35h14v42H38z" fill="#fff"/>
  <path d="M31 42l14-13v14L31 56z" fill="#DCE8FF"/>
  <path d="M64 36c15 0 27 12 27 28S79 92 64 92 37 80 37 64s12-28 27-28zm0 13c-8 0-14 6-14 15s6 15 14 15 14-6 14-15-6-15-14-15z" fill="#fff"/>
  <path d="M42 99h44" stroke="#DCE8FF" stroke-linecap="round" stroke-width="5"/>
</svg>
